<?xml version="1.0" encoding="UTF-8"?>
<svg id="Calque_1" data-name="Calque 1" xmlns="http://www.w3.org/2000/svg" viewBox="0 0 40 40">
  <defs>
    <style>
      .cls-1 {
        fill: #ff5400;
      }
    </style>
  </defs>
  <path class="cls-1" d="m39.99,1.69v-.04s0-.07,0-.07v-.03s0-.04,0-.04v-.07s0-.04,0-.04v-.03s0-.02,0-.02v-.08s-.02-.03-.02-.03v-.03s-.02-.06-.02-.06v-.05s-.02-.01-.02-.01v-.02s-.03-.08-.03-.08l-.02-.04-.02-.04-.03-.06-.02-.04v-.03s-.07-.09-.07-.09h0s-.03-.05-.03-.05l-.05-.06h-.01s0-.02,0-.02l-.02-.02-.08-.09h-.01s-.02-.04-.02-.04l-.06-.06-.03-.03s0,0,0,0c0,0,0,0,0,0h0s-.07-.05-.07-.05l-.04-.03-.03-.02-.06-.04-.04-.02h-.03s-.06-.04-.06-.04l-.04-.02h-.01s-.05-.02-.05-.02l-.06-.02h-.03s-.04-.02-.04-.02h-.06s-.03-.02-.03-.02h-.02s-.05-.01-.05-.01h-.06s-.03-.01-.03-.01h-.04s-.06,0-.06,0c-.01,0-.02,0-.04,0,0,0-.02,0-.02,0h-.03s-.08,0-.08,0c0,0-.02,0-.03,0h0s-.04,0-.04,0h-.06s-.05.02-.05.02h0s-.02,0-.02,0l-.08.02h-.04s0,.01,0,.01h-.04s-.06.03-.06.03l-.04.02h-.03s0,.02,0,.02L1.91,16.37l-.07.03c-.55.28-1.02.71-1.35,1.24C.17,18.17,0,18.78,0,19.4c0,1.24.67,2.37,1.75,2.97l6.27,4.06,4.5,11.41c.1.26.27.48.48.65.22.17.47.28.74.32.08.01.15.02.23.02.47,0,.93-.22,1.23-.59l3.57-4.53,8.07,5.47.02.02c.79.51,1.69.79,2.62.81h.1c2.41,0,4.52-1.78,4.93-4.19.07-.41-.03-.83-.26-1.17-.24-.34-.6-.57-1.01-.64-.85-.15-1.66.43-1.8,1.28-.18,1.06-1.11,1.61-1.89,1.59-.34,0-.67-.11-.96-.3l-10.19-6.9L35.94,7.29l-3.33,20.82c-.14.85.44,1.65,1.3,1.79.85.14,1.65-.44,1.79-1.3L39.98,1.83h0s0-.02,0-.02c0-.02,0-.05,0-.07,0,0,0-.02,0-.03v-.02ZM15.18,28.74c-.11.14-.2.31-.26.48l-1.1,3.38-2.66-6.73,17.36-14.2-13.35,17.06ZM3.26,19.64s-.14-.07-.14-.23c0-.13.07-.19.12-.22L28.22,7.9l-19.03,15.56-5.79-3.75s-.09-.05-.13-.08Z"/>
</svg>